# xmcd CD database file generated by Grip 3.3.1
# 
# Track frame offsets:
#       150
#       40147
#       95389
#       104054
#       115048
#       119695
#       129517
#       136699
#       140817
#       151804
#       170759
#       182724
#       198153
#       225570
# 
# Disc length: 4322 seconds
# 
# Revision: 1
# Processed by: cddbd v1.5.2PL0 Copyright (c) Steve Scherf et al.
# Submitted via: Grip 3.3.1
# 
DISCID=c110e00e
DTITLE=Royal Concertgebouw Orchestra Amsterdam - Radio Legacy RCO 1960-1
DTITLE=970 CD58
DYEAR=1900
DGENRE=Classical
TTITLE0=I. Andante sostenuto - Violin Concerto No.1, Sz.36 (1907-1908) - 
TTITLE0=Yehudi Menuhin (violin), Pierre Boulez (dir.), Béla Bartók
TTITLE1=II. Allegro giocoso - Violin Concerto No.1, Sz.36 (1907-1908) - Y
TTITLE1=ehudi Menuhin (violin), Pierre Boulez (dir.), Béla Bartók
TTITLE2=I. Fanfare - Les Illuminations, Op.18 (1939) - Peter Pears (tenor
TTITLE2=), Sir Colin Davis (dir.), Benjamin Britten
TTITLE3=II. Villes - Les Illuminations, Op.18 (1939) - Peter Pears (tenor
TTITLE3=), Sir Colin Davis (dir.), Benjamin Britten
TTITLE4=III. Phrase - Les Illuminations, Op.18 (1939) - Peter Pears (teno
TTITLE4=r), Sir Colin Davis (dir.), Benjamin Britten
TTITLE5=IV. Antique - Les Illuminations, Op.18 (1939) - Peter Pears (teno
TTITLE5=r), Sir Colin Davis (dir.), Benjamin Britten
TTITLE6=V. Royauté  - Les Illuminations, Op.18 (1939) - Peter Pears (ten
TTITLE6=or), Sir Colin Davis (dir.), Benjamin Britten
TTITLE7=VI. Marine - Les Illuminations, Op.18 (1939) - Peter Pears (tenor
TTITLE7=), Sir Colin Davis (dir.), Benjamin Britten
TTITLE8=VII. Interlude - Les Illuminations, Op.18 (1939) - Peter Pears (t
TTITLE8=enor), Sir Colin Davis (dir.), Benjamin Britten
TTITLE9=VIII. Being Beauteous - Les Illuminations, Op.18 (1939) - Peter P
TTITLE9=ears (tenor), Sir Colin Davis (dir.), Benjamin Britten
TTITLE10=IX. Parade - Les Illuminations, Op.18 (1939) - Peter Pears (tenor
TTITLE10=), Sir Colin Davis (dir.), Benjamin Britten
TTITLE11=X. Départ - Les Illuminations, Op.18 (1939) - Peter Pears (tenor
TTITLE11=), Sir Colin Davis (dir.), Benjamin Britten
TTITLE12=Ionisation (1929-1931) - Bruna Maderna (dir.), Edgar Varèse
TTITLE13=Déserts (1950-1954) - Bruna Maderna (dir.), Edgar Varèse
EXTD=
EXTT0=
EXTT1=
EXTT2=
EXTT3=
EXTT4=
EXTT5=
EXTT6=
EXTT7=
EXTT8=
EXTT9=
EXTT10=
EXTT11=
EXTT12=
EXTT13=
PLAYORDER=
